<svg height="500pt" viewBox="0 -14 500 500" width="500pt" xmlns="http://www.w3.org/2000/svg"><path d="m291.335938 204c-5.160157 0-9.335938-4.335938-9.335938-9.6875v-62.3125h-32v224h170c4.414062 0 8-3.585938 8-8v-144zm0 0" fill="#40c4ff"/><g fill="#263238"><path d="m476 440h-448c-13.230469 0-24-10.769531-24-24s10.769531-24 24-24h448c13.230469 0 24 10.769531 24 24s-10.769531 24-24 24zm-448-40c-8.824219 0-16 7.175781-16 16s7.175781 16 16 16h448c8.824219 0 16-7.175781 16-16s-7.175781-16-16-16zm0 0"/><path d="m272 420h-40c-6.617188 0-12-5.382812-12-12v-12c0-2.207031 1.792969-4 4-4s4 1.792969 4 4v12c0 2.207031 1.792969 4 4 4h40c2.207031 0 4-1.792969 4-4v-12c0-2.207031 1.792969-4 4-4s4 1.792969 4 4v12c0 6.617188-5.382812 12-12 12zm0 0"/><path d="m92 24h-32c-2.207031 0-4-1.792969-4-4s1.792969-4 4-4h32c2.207031 0 4 1.792969 4 4s-1.792969 4-4 4zm0 0"/><path d="m76 40c-2.207031 0-4-1.792969-4-4v-32c0-2.207031 1.792969-4 4-4s4 1.792969 4 4v32c0 2.207031-1.792969 4-4 4zm0 0"/><path d="m36 76h-32c-2.207031 0-4-1.792969-4-4s1.792969-4 4-4h32c2.207031 0 4 1.792969 4 4s-1.792969 4-4 4zm0 0"/><path d="m20 92c-2.207031 0-4-1.792969-4-4v-32c0-2.207031 1.792969-4 4-4s4 1.792969 4 4v32c0 2.207031-1.792969 4-4 4zm0 0"/><path d="m420 360h-336c-6.617188 0-12-5.382812-12-12v-208c0-6.617188 5.382812-12 12-12h198c2.207031 0 4 1.792969 4 4s-1.792969 4-4 4h-198c-2.207031 0-4 1.792969-4 4v208c0 2.207031 1.792969 4 4 4h336c2.207031 0 4-1.792969 4-4v-144c0-2.207031 1.792969-4 4-4s4 1.792969 4 4v144c0 6.617188-5.382812 12-12 12zm0 0"/><path d="m172 472h-16c-2.207031 0-4-1.792969-4-4s1.792969-4 4-4h16c2.207031 0 4 1.792969 4 4s-1.792969 4-4 4zm0 0"/><path d="m348 472h-160c-2.207031 0-4-1.792969-4-4s1.792969-4 4-4h160c2.207031 0 4 1.792969 4 4s-1.792969 4-4 4zm0 0"/><path d="m220 232h-120c-2.207031 0-4-1.792969-4-4s1.792969-4 4-4h120c2.207031 0 4 1.792969 4 4s-1.792969 4-4 4zm0 0"/><path d="m220 256h-100c-2.207031 0-4-1.792969-4-4s1.792969-4 4-4h100c2.207031 0 4 1.792969 4 4s-1.792969 4-4 4zm0 0"/><path d="m220 176h-120c-2.207031 0-4-1.792969-4-4s1.792969-4 4-4h120c2.207031 0 4 1.792969 4 4s-1.792969 4-4 4zm0 0"/><path d="m220 200h-100c-2.207031 0-4-1.792969-4-4s1.792969-4 4-4h100c2.207031 0 4 1.792969 4 4s-1.792969 4-4 4zm0 0"/><path d="m220 312h-100c-2.207031 0-4-1.792969-4-4s1.792969-4 4-4h100c2.207031 0 4 1.792969 4 4s-1.792969 4-4 4zm0 0"/><path d="m220 288h-120c-2.207031 0-4-1.792969-4-4s1.792969-4 4-4h120c2.207031 0 4 1.792969 4 4s-1.792969 4-4 4zm0 0"/></g><path d="m490 68h-192v-24c0-4.414062 3.585938-8 8-8h176c4.414062 0 8 3.585938 8 8zm0 0" fill="#ff5252"/><path d="m490 72h-192c-2.207031 0-4-1.792969-4-4v-24c0-6.617188 5.382812-12 12-12h176c6.617188 0 12 5.382812 12 12v24c0 2.207031-1.792969 4-4 4zm-188-8h184v-20c0-2.207031-1.792969-4-4-4h-176c-2.207031 0-4 1.792969-4 4zm0 0" fill="#263238"/><path d="m482 192h-176c-6.617188 0-12-5.382812-12-12v-112c0-2.207031 1.792969-4 4-4h192c2.207031 0 4 1.792969 4 4v112c0 6.617188-5.382812 12-12 12zm-180-120v108c0 2.207031 1.792969 4 4 4h176c2.207031 0 4-1.792969 4-4v-108zm0 0" fill="#263238"/><path d="m452 384c-2.207031 0-4-1.792969-4-4v-176c0-2.207031 1.792969-4 4-4s4 1.792969 4 4v176c0 2.207031-1.792969 4-4 4zm0 0" fill="#263238"/><path d="m52 384c-2.207031 0-4-1.792969-4-4v-252c0-13.230469 10.769531-24 24-24h210c2.207031 0 4 1.792969 4 4s-1.792969 4-4 4h-210c-8.824219 0-16 7.175781-16 16v252c0 2.207031-1.792969 4-4 4zm0 0" fill="#263238"/><path d="m250 360c-2.207031 0-4-1.792969-4-4v-224c0-2.207031 1.792969-4 4-4s4 1.792969 4 4v224c0 2.207031-1.792969 4-4 4zm0 0" fill="#263238"/><path d="m374 150c-.832031 0-1.671875-.265625-2.390625-.800781l-24-18c-1.007813-.75-1.601563-1.941407-1.601563-3.199219s.59375-2.449219 1.601563-3.199219l24-18c1.757813-1.335937 4.269531-.976562 5.597656.800781 1.328125 1.765626.96875 4.269532-.800781 5.597657l-19.726562 14.800781 19.726562 14.800781c1.769531 1.328125 2.128906 3.832031.800781 5.597657-.792969 1.050781-1.992187 1.601562-3.207031 1.601562zm0 0" fill="#263238"/><path d="m414 150c-1.214844 0-2.414062-.550781-3.199219-1.601562-1.328125-1.765626-.96875-4.269532.800781-5.597657l19.726563-14.800781-19.726563-14.800781c-1.769531-1.328125-2.128906-3.832031-.800781-5.597657 1.328125-1.769531 3.832031-2.128906 5.597657-.800781l24 18c1.007812.75 1.601562 1.941407 1.601562 3.199219s-.59375 2.449219-1.601562 3.199219l-24 18c-.71875.535156-1.558594.800781-2.398438.800781zm0 0" fill="#263238"/><path d="m390 148c-.320312 0-.648438-.039062-.976562-.121094-2.144532-.535156-3.449219-2.703125-2.910157-4.847656l8-32c.527344-2.152344 2.703125-3.472656 4.847657-2.910156 2.144531.535156 3.445312 2.703125 2.910156 4.847656l-8 32c-.445313 1.824219-2.070313 3.03125-3.871094 3.03125zm0 0" fill="#263238"/><path d="m274 236h64v80h-64zm0 0" fill="#ffd740"/><path d="m338 320h-64c-2.207031 0-4-1.792969-4-4v-80c0-2.207031 1.792969-4 4-4h64c2.207031 0 4 1.792969 4 4v80c0 2.207031-1.792969 4-4 4zm-60-8h56v-72h-56zm0 0" fill="#263238"/><path d="m338 236h64v40h-64zm0 0" fill="#ffd740"/><path d="m402 280h-64c-2.207031 0-4-1.792969-4-4v-40c0-2.207031 1.792969-4 4-4h64c2.207031 0 4 1.792969 4 4v40c0 2.207031-1.792969 4-4 4zm-60-8h56v-32h-56zm0 0" fill="#263238"/><path d="m338 276h64v40h-64zm0 0" fill="#ffd740"/><path d="m402 320h-64c-2.207031 0-4-1.792969-4-4v-40c0-2.207031 1.792969-4 4-4h64c2.207031 0 4 1.792969 4 4v40c0 2.207031-1.792969 4-4 4zm-60-8h56v-32h-56zm0 0" fill="#263238"/></svg>